<?xml version="1.0" encoding="UTF-8" standalone="no"?>
<svg width="460px" height="135px" viewBox="0 0 460 135" version="1.1" xmlns="http://www.w3.org/2000/svg" xmlns:xlink="http://www.w3.org/1999/xlink">
    <!-- Generator: Sketch 3.8.2 (29753) - http://www.bohemiancoding.com/sketch -->
    <title>by-songkick-pink</title>
    <desc>Created with Sketch.</desc>
    <defs></defs>
    <g id="Page-1" stroke="none" stroke-width="1" fill="none" fill-rule="evenodd">
        <g id="by-songkick-pink" fill="#F80046">
            <g id="by_songkick_black" transform="translate(38.000000, 13.000000)">
                <g id="by-Songkick">
                    <g id="By-Songkick">
                        <g id="Fill-1-+-by-copy-2">
                            <path d="M267.446587,68.6751636 C263.063099,68.6751636 260.168022,67.3898789 257.14048,62.6644252 C254.189142,57.967134 249.242657,50.0641497 249.242657,50.0641497 L270.754354,20.0909948 L252.072041,20.0909948 L234.993595,43.8753242 L234.993595,0.9684029 L219.382088,0.9684029 L219.382088,83.347811 L234.993595,83.347811 L234.993595,57.1989069 C234.993595,57.1989069 243.736169,70.931102 246.390844,75.1636467 C250.672322,81.6934816 256.379389,83.4190458 265.851705,83.4190458 L270.415383,83.4078317 L270.415383,68.6807707 C268.756785,68.6807707 268.75876,68.6751636 267.446587,68.6751636 L267.446587,68.6751636 Z M410.735058,68.6751636 C406.351569,68.6751636 403.457449,67.3898789 400.42997,62.6644252 C397.477613,57.967134 392.531127,50.0641497 392.531127,50.0641497 L414.042825,20.0909948 L395.360512,20.0909948 L378.281046,43.8753242 L378.281046,0.9684029 L362.670559,0.9684029 L362.670559,83.347811 L378.281046,83.347811 L378.281046,57.1989069 C378.281046,57.1989069 387.024639,70.931102 389.680334,75.1636467 C393.960729,81.6934816 399.66735,83.4190458 409.140558,83.4190458 L413.703854,83.4078317 L413.703854,68.6807707 C412.045702,68.6807707 412.047231,68.6751636 410.735058,68.6751636 L410.735058,68.6751636 Z M24.711413,84.0318052 C14.989265,84.0318052 7.04958,82.2480044 0.62921,75.6489736 L10.619666,65.6585803 C13.919469,68.9580639 19.716694,70.1178912 24.799532,70.1178912 C30.954652,70.1178912 33.898535,68.0681387 33.898535,64.4106334 C33.898535,62.8930392 33.544081,61.641333 32.650588,60.6558971 C31.848655,59.8539641 30.508638,59.2262313 28.457292,58.9601522 L20.788402,57.8922037 C15.167925,57.0884229 10.88702,55.2148458 8.032212,52.2713451 C5.0868,49.2397248 3.662678,44.9584372 3.662678,39.5191063 C3.662678,27.9229993 12.403786,19.4465047 26.851387,19.4465047 C35.94988,19.4465047 42.818813,21.5880724 48.2591,27.0292511 L38.447813,36.839837 C34.432158,32.8264126 29.170086,33.0943395 26.405437,33.0943395 C20.96515,33.0943395 18.736546,36.2177113 18.736546,38.9814047 C18.736546,39.7851855 19.00339,40.943165 19.985449,41.9249054 C20.788402,42.7286862 22.122939,43.5306192 24.356513,43.7985461 L32.024384,44.8703176 C37.733426,45.6703391 41.836181,47.4541399 44.51271,50.1316252 C47.902161,53.4311725 49.238164,58.1563714 49.238164,64.0547143 C49.238164,76.9886719 38.09132,84.0318052 24.711413,84.0318052 L24.711413,84.0318052 Z M96.489325,76.8967931 C91.850015,81.5360387 86.496765,84.0318052 78.737843,84.0318052 C70.977392,84.0318052 65.625735,81.5360387 60.98942,76.8967931 C54.298638,70.2078586 54.566437,61.2835661 54.566437,51.7354913 C54.566437,42.1928323 54.298638,33.2722991 60.98942,26.5833646 C65.625735,21.944119 70.977392,19.4465047 78.737843,19.4465047 C86.496765,19.4465047 91.850015,21.944119 96.489325,26.5833646 C103.177048,33.2722991 102.910205,42.1928323 102.910205,51.7354913 C102.910205,61.2835661 103.177048,70.2078586 96.489325,76.8967931 L96.489325,76.8967931 Z M78.737843,33.3622664 C75.883545,33.3622664 73.653476,34.6119974 72.495687,36.1278713 C71.069972,37.9996643 70.175969,40.141232 70.175969,51.7354913 C70.175969,63.3426849 71.069972,65.3925012 72.495687,67.2662057 C73.653476,68.7819521 75.883545,70.1178912 78.737843,70.1178912 C81.592651,70.1178912 83.822211,68.7819521 84.982102,67.2662057 C86.40769,65.3925012 87.299781,63.3426849 87.299781,51.7354913 C87.299781,40.141232 86.40769,37.9996643 84.982102,36.1278713 C83.822211,34.6119974 81.592651,33.3622664 78.737843,33.3622664 L78.737843,33.3622664 Z M332.758253,84.104824 C325.355696,84.104824 319.73624,81.6072098 315.097886,76.9679641 C308.414622,70.2808775 308.680956,61.3528894 308.680956,51.8085101 C308.680956,42.2603078 308.414622,33.3434701 315.097886,26.6563835 C319.73624,22.0172015 325.355696,19.5176758 332.758253,19.5176758 C344.802095,19.5176758 354.52284,26.2086492 356.841539,40.2124031 L340.966757,40.2124031 C339.98508,36.6430811 338.02332,33.4335012 332.848348,33.4335012 C329.99354,33.4335012 327.855095,34.5933286 326.693229,36.109075 C325.266621,37.9827158 324.286474,40.2124031 324.286474,51.8085101 C324.286474,63.4100967 325.266621,65.6416955 326.693229,67.5134885 C327.855095,69.0312102 329.99354,70.1909101 332.848348,70.1909101 C338.02332,70.1909101 339.98508,66.9794824 340.966757,63.4100967 L356.841539,63.4100967 C354.52284,77.4121303 344.802095,84.104824 332.758253,84.104824 L332.758253,84.104824 Z M196.180381,88.174446 C196.180381,96.534722 190.405584,98.013003 186.671746,98.013003 L180.996028,98.050469 L180.996028,111.975597 L187.918674,112 C203.454039,111.900666 211.926775,103.783978 211.926775,88.202609 L211.871533,41.3141212 C211.871533,34.0012132 208.505466,28.2002925 203.579433,24.4567065 C199.185495,21.1196941 193.5431,19.4428092 187.918674,19.4428092 C180.515671,19.4428092 174.89666,21.9422712 170.261811,26.5815168 C163.569117,33.2686035 163.838892,42.1853775 163.838892,51.7335798 C163.838892,61.2779591 163.569117,70.2059471 170.261811,76.8930975 C174.89666,81.5322794 180.515671,84.0298937 187.918674,84.0298937 C190.791895,84.0298937 193.382854,83.4565746 196.180381,82.1130533 L196.180381,88.174446 L196.180381,88.174446 Z M188.009278,70.1159797 C185.154025,70.1159797 183.013986,68.9561524 181.854222,67.4385582 C180.426532,65.5667652 179.446384,63.3351664 179.446384,51.7335798 C179.446384,40.1374727 180.426532,37.9077854 181.854222,36.0341447 C183.013986,34.5182708 185.154025,33.3585709 188.009278,33.3585709 C193.094665,33.3585709 195.072801,36.4593871 196.071872,39.957538 L196.071872,63.5188604 C195.072801,67.0113406 193.094665,70.1159797 188.009278,70.1159797 L188.009278,70.1159797 Z M157.543405,47.510274 C157.543405,41.0292457 157.801775,33.2442002 151.119531,26.5645683 C146.483216,21.9253227 141.132005,19.4278359 133.369578,19.4278359 C125.610593,19.4278359 120.25747,21.9253227 115.620072,26.5645683 C108.930947,33.2535028 109.197217,41.4378582 109.197217,47.5065784 L109.193203,83.477155 L124.790819,83.4733957 L124.806748,47.5065784 C124.806748,39.389826 125.697693,38.1982679 127.126403,36.3263475 C128.28623,34.8106011 130.513815,33.3434701 133.369578,33.3434701 C136.224896,33.3434701 138.454456,34.8106011 139.612308,36.3263475 C141.039425,38.1982679 141.931962,39.1781605 141.931962,47.5458914 L141.903035,83.4471446 L157.504092,83.471548 L157.543405,47.510274 L157.543405,47.510274 Z M292.209854,12.3375526 L292.209854,0.9833762 L276.659578,0.9814648 L276.657539,12.3114289 L292.209854,12.3375526 L292.209854,12.3375526 Z M276.240899,20.0985771 L292.11275,20.1079434 L292.115235,58.8987297 C292.140466,65.4279274 296.549505,68.6695566 301.732952,68.6695566 L303.566897,68.6733159 L303.566897,83.4303235 L300.268433,83.4659409 C284.426974,83.3666073 276.261351,74.6877498 276.261351,59.4229872 L276.240899,20.0985771 L276.240899,20.0985771 Z" id="Fill-1"></path>
                        </g>
                    </g>
                </g>
            </g>
            <path d="M23.942,23.316 C23.942,20.472 24.05,17.088 22.142,15.18 C21.026,14.064 19.334,13.416 17.462,13.416 C15.554,13.416 14.222,13.956 13.142,15.036 L13.142,7.368 L7.238,7.368 L7.238,33 L12.962,33 L12.962,31.416 C14.15,32.604 15.41,33.216 17.426,33.216 C19.298,33.216 21.026,32.568 22.142,31.452 C24.05,29.544 23.942,26.16 23.942,23.316 L23.942,23.316 Z M18.038,23.316 C18.038,26.124 17.786,27.888 15.59,27.888 C13.394,27.888 13.142,26.124 13.142,23.316 C13.142,20.508 13.394,18.744 15.59,18.744 C17.786,18.744 18.038,20.508 18.038,23.316 L18.038,23.316 Z M43.282,13.632 L37.09,13.632 L33.958,23.676 L30.682,13.632 L24.49,13.632 L30.934,31.092 L30.394,32.712 C29.998,33.9 29.458,34.152 28.414,34.152 L27.154,34.152 L27.154,39.48 L29.386,39.48 C31.114,39.48 32.59,39.084 33.742,37.86 C34.354,37.248 34.858,36.42 35.254,35.304 L43.282,13.632 Z" id="by"></path>
        </g>
    </g>
</svg>